<svg xmlns="http://www.w3.org/2000/svg" width="760" height="470" viewBox="0 0 760 470">
<rect width="100%" height="100%" fill="white"/>
<line x1="70" y1="400" x2="690" y2="400" stroke="#333"/>
<line x1="70" y1="70" x2="70" y2="400" stroke="#333"/>
<line x1="462.4" y1="70" x2="462.4" y2="400" stroke="#bbb" stroke-dasharray="4"/>
<line x1="70" y1="180.2" x2="690" y2="180.2" stroke="#bbb" stroke-dasharray="4"/>
<circle cx="501.4" cy="158.7" r="6" fill="#2563eb" opacity=".8"/>
<text x="509.4" y="151.7" font-size="11" font-family="sans-serif">1976</text>
<circle cx="270.7" cy="345.5" r="6" fill="#dc2626" opacity=".8"/>
<text x="278.7" y="338.5" font-size="11" font-family="sans-serif">1980</text>
<circle cx="121.7" cy="372.5" r="6" fill="#dc2626" opacity=".8"/>
<text x="129.7" y="365.5" font-size="11" font-family="sans-serif">1984</text>
<circle cx="317.4" cy="298.5" r="6" fill="#dc2626" opacity=".8"/>
<text x="325.4" y="291.5" font-size="11" font-family="sans-serif">1988</text>
<circle cx="590.7" cy="104.3" r="6" fill="#2563eb" opacity=".8"/>
<text x="598.7" y="97.3" font-size="11" font-family="sans-serif">1992</text>
<circle cx="638.3" cy="97.5" r="6" fill="#2563eb" opacity=".8"/>
<text x="646.3" y="90.5" font-size="11" font-family="sans-serif">1996</text>
<circle cx="472.3" cy="182.0" r="6" fill="#dc2626" opacity=".8"/>
<text x="480.3" y="175.0" font-size="11" font-family="sans-serif">2000</text>
<circle cx="416.1" cy="193.3" r="6" fill="#dc2626" opacity=".8"/>
<text x="424.1" y="186.3" font-size="11" font-family="sans-serif">2004</text>
<circle cx="599.4" cy="108.0" r="6" fill="#2563eb" opacity=".8"/>
<text x="607.4" y="101.0" font-size="11" font-family="sans-serif">2008</text>
<circle cx="535.3" cy="132.8" r="6" fill="#2563eb" opacity=".8"/>
<text x="543.3" y="125.8" font-size="11" font-family="sans-serif">2012</text>
<circle cx="503.7" cy="209.1" r="6" fill="#dc2626" opacity=".8"/>
<text x="511.7" y="202.1" font-size="11" font-family="sans-serif">2016</text>
<circle cx="546.7" cy="152.3" r="6" fill="#2563eb" opacity=".8"/>
<text x="554.7" y="145.3" font-size="11" font-family="sans-serif">2020</text>
<text x="380.0" y="452" text-anchor="middle" font-size="14" font-family="sans-serif">Margen popular bipartidista (pp)</text>
<text transform="translate(18 235.0) rotate(-90)" text-anchor="middle" font-size="14" font-family="sans-serif">Margen electoral (pp)</text>
<text x="70" y="25" font-size="12" font-family="sans-serif" fill="#2563eb">● ganador demócrata</text>
<text x="230" y="25" font-size="12" font-family="sans-serif" fill="#dc2626">● ganador republicano</text>
</svg>